<svg xmlns="http://www.w3.org/2000/svg" viewBox="0 0 75.5 75.5">
  <defs>
    <style>
      .cls-1 {
        fill: #fb6332;
      }

      .cls-2 {
        fill: #fff;
      }
    </style>
  </defs>
  <g id="icon-ratings" transform="translate(-1155 -1397)">
    <circle id="Icon.BG" class="cls-1" cx="37.75" cy="37.75" r="37.75" transform="translate(1155 1397)"/>
    <path id="time-countdown" class="cls-2" d="M0,17.575A13.587,13.587,0,0,1,13.671,3.9,13.368,13.368,0,0,1,21.877,6.64l1.757-1.76L22.069,3.318a1.887,1.887,0,0,1,0-2.733,1.891,1.891,0,0,1,2.736,0l5.86,5.859a1.888,1.888,0,0,1,0,2.733,1.891,1.891,0,0,1-2.737,0L26.367,7.616,24.609,9.373a13.371,13.371,0,0,1,2.733,8.2A13.587,13.587,0,0,1,13.671,31.246,13.587,13.587,0,0,1,0,17.575Zm3.908,0a9.672,9.672,0,0,0,9.763,9.767,9.673,9.673,0,0,0,9.767-9.767,9.67,9.67,0,0,0-9.767-9.764A9.669,9.669,0,0,0,3.908,17.575Zm7.811,1.952V11.716h3.908v3.907h3.9v3.9Z" transform="translate(1176.75 1419.502)"/>
  </g>
</svg>
