<?xml version="1.0" encoding="iso-8859-1"?>
<!-- Generator: Adobe Illustrator 19.0.0, SVG Export Plug-In . SVG Version: 6.00 Build 0)  -->
<svg version="1.1" id="Capa_1" xmlns="http://www.w3.org/2000/svg" xmlns:xlink="http://www.w3.org/1999/xlink" x="0px" y="0px"
	 viewBox="0 0 512 512" style="enable-background:new 0 0 512 512;" xml:space="preserve">
<g>
	<g>
		<g>
			<path d="M511.935,469.013c-0.022-1.002-0.222-1.993-0.591-2.925c-0.053-0.128-0.144-0.228-0.203-0.353
				c-0.25-0.58-0.565-1.13-0.938-1.639l-43.854-56.429l5.087-5.725c6.259-7.045,5.625-17.829-1.417-24.092l-17.754-15.781V145.067
				c-0.015-14.132-11.468-25.585-25.6-25.6H409.6V25.6C409.585,11.468,398.132,0.015,384,0H128
				c-14.132,0.015-25.585,11.468-25.6,25.6v93.867H85.333c-14.132,0.015-25.585,11.468-25.6,25.6v244.538L1.796,464.096
				c-0.376,0.512-0.693,1.065-0.944,1.648c-0.057,0.121-0.144,0.217-0.195,0.341c-0.37,0.933-0.57,1.924-0.592,2.928
				C0.06,469.125,0,469.219,0,469.333V486.4c0.015,14.132,11.468,25.585,25.6,25.6h460.8c14.132-0.015,25.585-11.468,25.6-25.6
				v-17.067C512,469.22,511.94,469.126,511.935,469.013z M409.6,136.533h17.067c4.71,0.006,8.527,3.823,8.533,8.533v201.832
				l-25.6-22.755V136.533z M437.697,371.94l0.007,0.006l20.987,18.65l-0.008,0.004l-0.004,0.004l-11.334,12.758l-107.721-95.75
				l5.661-6.371l0.005-0.004l0.004-0.006l5.663-6.373L437.697,371.94z M119.467,25.6c0.006-4.71,3.823-8.527,8.533-8.533h256
				c4.71,0.006,8.527,3.823,8.533,8.533v283.373L362.3,282.1c-7.046-6.26-17.831-5.625-24.094,1.419l-13.072-11.621
				c26.773-36.835,19.934-88.197-15.545-116.743c-35.479-28.546-87.115-24.232-117.365,9.805
				c-30.25,34.037-28.472,85.822,4.042,117.704v33.069H179.2v-17.067c0-4.713-3.82-8.533-8.533-8.533s-8.533,3.82-8.533,8.533
				v17.067H153.6c-4.713,0-8.533,3.82-8.533,8.533s3.821,8.533,8.533,8.533h187.733c0.27,0,0.497-0.129,0.76-0.154l19.373,17.22
				h-242V25.6z M324.666,315.733H281.6v-12.537c11.974-3.713,22.971-10.046,32.193-18.539l13.073,11.621
				C322.062,301.632,321.179,309.442,324.666,315.733z M264.533,187.733v101.795c-1.503,0.188-2.999,0.398-4.525,0.488
				c-4.185,0.234-8.383,0.086-12.542-0.442V204.8c0-4.713-3.82-8.533-8.533-8.533s-8.533,3.82-8.533,8.533v80.301
				c-6.149-2.499-11.899-5.885-17.067-10.052v-36.116c0-4.713-3.821-8.533-8.533-8.533s-8.533,3.82-8.533,8.533v15.889
				c-11.331-20.512-11.343-45.404-0.032-65.927c11.311-20.523,32.363-33.805,55.757-35.178c1.371-0.079,2.738-0.118,4.1-0.117
				c26.866,0.034,51.215,15.824,62.204,40.34c10.989,24.516,6.576,53.198-11.275,73.277c-6.975,7.852-15.677,13.978-25.421,17.897
				v-97.381c0-4.713-3.821-8.533-8.533-8.533C268.354,179.2,264.533,183.021,264.533,187.733z M264.533,306.67v9.063h-17.067v-8.968
				c2.785,0.274,5.592,0.438,8.421,0.438c1.7,0,3.412-0.05,5.125-0.154C262.2,306.98,263.357,306.788,264.533,306.67z
				 M230.4,303.235v12.498h-17.067V295.73C218.727,298.855,224.451,301.372,230.4,303.235z M76.8,145.067
				c0.006-4.71,3.823-8.527,8.533-8.533H102.4v213.333h-8.533c-4.713,0-8.533,3.82-8.533,8.533s3.821,8.533,8.533,8.533h286.801
				L399.868,384H76.8V145.067z M72.442,401.067h346.626l16.936,15.054c4.819,4.313,11.678,5.492,17.66,3.036l32.365,41.643H25.979
				L72.442,401.067z M494.933,486.4c-0.006,4.71-3.823,8.527-8.533,8.533H25.6c-4.71-0.006-8.527-3.823-8.533-8.533v-8.533h477.867
				V486.4z"/>
			<path d="M392.533,426.667H119.467c-4.713,0-8.533,3.82-8.533,8.533s3.82,8.533,8.533,8.533h273.067
				c4.713,0,8.533-3.82,8.533-8.533S397.246,426.667,392.533,426.667z"/>
			<path d="M85.333,426.667H76.8c-4.713,0-8.533,3.82-8.533,8.533s3.82,8.533,8.533,8.533h8.533c4.713,0,8.533-3.82,8.533-8.533
				S90.046,426.667,85.333,426.667z"/>
			<path d="M145.067,85.333h221.867c4.713,0,8.533-3.82,8.533-8.533V42.667c0-4.713-3.82-8.533-8.533-8.533H145.067
				c-4.713,0-8.533,3.82-8.533,8.533V76.8C136.533,81.513,140.354,85.333,145.067,85.333z M153.6,51.2h204.8v17.067H153.6V51.2z"/>
			<path d="M366.933,119.467c4.713,0,8.533-3.82,8.533-8.533s-3.82-8.533-8.533-8.533H145.067c-4.713,0-8.533,3.82-8.533,8.533
				s3.82,8.533,8.533,8.533H366.933z"/>
		</g>
	</g>
</g>
<g>
</g>
<g>
</g>
<g>
</g>
<g>
</g>
<g>
</g>
<g>
</g>
<g>
</g>
<g>
</g>
<g>
</g>
<g>
</g>
<g>
</g>
<g>
</g>
<g>
</g>
<g>
</g>
<g>
</g>
</svg>
