<svg height="480pt" viewBox="0 0 480 480" width="480pt" xmlns="http://www.w3.org/2000/svg"><path d="m479.953125 239.769531c-.035156-.859375-.203125-1.703125-.503906-2.503906-.066407-.207031-.144531-.40625-.234375-.601563-.0625-.144531-.085938-.296874-.160156-.433593l-63.054688-118.230469v-46c0-.175781-.089844-.320312-.097656-.496094-.046875-.71875-.191406-1.429687-.429688-2.113281-.089844-.253906-.152344-.503906-.265625-.75-.375-.84375-.898437-1.617187-1.542969-2.28125l-64-64c-.667968-.644531-1.445312-1.167969-2.296874-1.542969-.238282-.113281-.480469-.175781-.726563-.265625-.695313-.246093-1.417969-.390625-2.152344-.429687-.183593-.0312502-.320312-.121094-.488281-.121094h-240c-22.082031.0273438-39.972656 17.917969-40 40v78l-63.054688 118.230469c-.074218.136719-.097656.289062-.160156.433593-.089844.195313-.167968.394532-.234375.601563-.300781.800781-.4687498 1.644531-.503906 2.503906 0 .078125-.046875.152344-.046875.230469v200c.0273438 22.082031 17.917969 39.972656 40 40h400c22.082031-.027344 39.972656-17.917969 40-40v-200c0-.078125-.046875-.152344-.046875-.230469zm-21.289063-7.769531h-42.664062v-80zm-69.976562-168h-28.6875c-4.417969 0-8-3.582031-8-8v-28.6875zm-308.6875-24c0-13.253906 10.746094-24 24-24h232v40c0 13.253906 10.746094 24 24 24h40v152h-40c-13.253906 0-24 10.746094-24 24v16c.019531 2.035156-.25 4.0625-.800781 6.023438-2.707031 10.59375-12.265625 18-23.199219 17.976562h-144c-11.003906.007812-20.597656-7.488281-23.257812-18.167969-.515626-1.898437-.769532-3.863281-.742188-5.832031v-16c0-13.253906-10.746094-24-24-24h-40zm-16 112v80h-42.664062zm400 288c0 13.253906-10.746094 24-24 24h-400c-13.253906 0-24-10.746094-24-24v-192h104c4.417969 0 8 3.582031 8 8v16c-.03125 3.367188.402344 6.726562 1.289062 9.976562 4.507813 17.691407 20.457032 30.058594 38.710938 30.023438h144c18.1875.050781 34.101562-12.226562 38.664062-29.832031.910157-3.3125 1.359376-6.734375 1.335938-10.167969v-16c0-4.417969 3.582031-8 8-8h104zm0 0"/><path d="m304 328h-128c-13.253906 0-24 10.746094-24 24s10.746094 24 24 24h128c13.253906 0 24-10.746094 24-24s-10.746094-24-24-24zm0 32h-128c-4.417969 0-8-3.582031-8-8s3.582031-8 8-8h128c4.417969 0 8 3.582031 8 8s-3.582031 8-8 8zm0 0"/><path d="m184 64h112c4.417969 0 8-3.582031 8-8s-3.582031-8-8-8h-112c-4.417969 0-8 3.582031-8 8s3.582031 8 8 8zm0 0"/><path d="m112 104c0 4.417969 3.582031 8 8 8h240c4.417969 0 8-3.582031 8-8s-3.582031-8-8-8h-240c-4.417969 0-8 3.582031-8 8zm0 0"/><path d="m360 144h-240c-4.417969 0-8 3.582031-8 8s3.582031 8 8 8h240c4.417969 0 8-3.582031 8-8s-3.582031-8-8-8zm0 0"/><path d="m360 192h-240c-4.417969 0-8 3.582031-8 8s3.582031 8 8 8h240c4.417969 0 8-3.582031 8-8s-3.582031-8-8-8zm0 0"/><path d="m296 240h-112c-4.417969 0-8 3.582031-8 8s3.582031 8 8 8h112c4.417969 0 8-3.582031 8-8s-3.582031-8-8-8zm0 0"/><path d="m104 80c4.417969 0 8-3.582031 8-8v-16c0-4.417969 3.582031-8 8-8h16c4.417969 0 8-3.582031 8-8s-3.582031-8-8-8h-16c-13.253906 0-24 10.746094-24 24v16c0 4.417969 3.582031 8 8 8zm0 0"/><path d="m384 440c0 4.417969 3.582031 8 8 8h32c13.253906 0 24-10.746094 24-24v-32c0-4.417969-3.582031-8-8-8s-8 3.582031-8 8v32c0 4.417969-3.582031 8-8 8h-32c-4.417969 0-8 3.582031-8 8zm0 0"/></svg>