<?xml version="1.0" encoding="iso-8859-1"?>
<!-- Generator: Adobe Illustrator 17.1.0, SVG Export Plug-In . SVG Version: 6.00 Build 0)  -->
<!DOCTYPE svg PUBLIC "-//W3C//DTD SVG 1.1//EN" "http://www.w3.org/Graphics/SVG/1.1/DTD/svg11.dtd">
<svg version="1.1" id="Capa_1" xmlns="http://www.w3.org/2000/svg" xmlns:xlink="http://www.w3.org/1999/xlink" x="0px" y="0px"
	 viewBox="0 0 199.198 199.198" style="enable-background:new 0 0 199.198 199.198;" xml:space="preserve">
<path d="M49.578,199.198c-8.364,0-15.673-6.193-16.833-14.707L16.126,62.475c-1.265-9.288,5.262-17.874,14.55-19.139l31.076-4.232
	l3.496-24.502c0.642-4.495,2.995-8.472,6.627-11.197c3.633-2.726,8.111-3.872,12.604-3.231l84.147,12.006
	c4.496,0.642,8.472,2.995,11.197,6.627s3.873,8.108,3.231,12.604l-17.394,121.908c-1.116,7.819-7.473,13.714-15.089,14.495
	l0.084,0.618c1.265,9.288-5.262,17.873-14.55,19.139l0,0l-84.223,11.471C51.109,199.147,50.339,199.198,49.578,199.198z
	 M117.219,36.708c-0.545,0-1.095,0.037-1.645,0.112L31.351,48.29c-6.556,0.894-11.164,6.954-10.271,13.51l16.619,122.017
	c0.893,6.557,6.957,11.16,13.51,10.271l84.223-11.471c6.556-0.894,11.164-6.954,10.271-13.51l-0.46-3.382
	c-0.001-0.01-0.003-0.02-0.004-0.03L129.084,47.09c-0.433-3.176-2.076-5.993-4.628-7.933
	C122.346,37.553,119.824,36.708,117.219,36.708z M134.038,46.415l15.859,116.44c5.448-0.481,10.019-4.669,10.814-10.243
	l17.394-121.908c0.453-3.173-0.357-6.333-2.281-8.896c-1.923-2.564-4.73-4.225-7.904-4.678l0,0L83.773,5.124
	C80.6,4.672,77.44,5.481,74.876,7.404s-4.225,4.73-4.678,7.903l-3.295,23.094l47.996-6.537c4.498-0.612,8.967,0.563,12.583,3.311
	C131.096,37.924,133.425,41.916,134.038,46.415z M83.311,150.523c-8.369,0-16.468-2.715-23.244-7.867
	c-8.195-6.23-13.474-15.279-14.863-25.479c-1.39-10.2,1.276-20.331,7.507-28.526c5.973-7.857,14.537-13.033,24.223-14.67
	c0.158-0.036,0.318-0.064,0.48-0.086c0.072-0.01,0.145-0.018,0.216-0.025c0.187-0.028,0.373-0.055,0.56-0.08l0,0
	c0.005-0.001,0.011-0.001,0.016-0.002c10.197-1.382,20.32,1.282,28.51,7.509c8.194,6.229,13.472,15.277,14.862,25.476
	c0,0.001,0,0.002,0,0.004c0,0.001,0,0.002,0,0.003c1.388,10.199-1.278,20.329-7.507,28.522c-6.23,8.195-15.279,13.474-25.479,14.863
	c-0.187,0.025-0.373,0.049-0.56,0.072c-0.072,0.013-0.144,0.024-0.216,0.034c-0.158,0.021-0.315,0.036-0.472,0.044
	C85.996,150.453,84.65,150.522,83.311,150.523z M80.363,135.062c2.546,6.622,5.161,10.014,6.535,10.247
	c0.13-0.008,0.259-0.017,0.389-0.029c1.274-0.441,2.947-4.429,3.646-11.658L80.363,135.062z M70.804,136.363
	c0.397,0.512,0.807,1.008,1.227,1.488c2.08,2.375,4.316,4.212,6.627,5.471c-1.232-2.16-2.367-4.726-3.394-7.566L70.804,136.363z
	 M96.03,132.927c-0.277,3.64-0.815,6.939-1.655,9.66c3.232-2.311,5.873-5.958,7.711-10.485L96.03,132.927z M61.745,137.597
	c0.438,0.369,0.888,0.729,1.347,1.078c2.032,1.545,4.201,2.838,6.47,3.87c-0.437-0.448-0.869-0.915-1.293-1.4
	c-1.093-1.248-2.119-2.591-3.073-4.018L61.745,137.597z M107.592,131.353c-0.775,2.328-1.727,4.505-2.836,6.494
	c1.963-1.627,3.754-3.492,5.335-5.573c0.35-0.459,0.686-0.926,1.01-1.399L107.592,131.353z M50.586,118.966
	c1.11,5.251,3.432,10.085,6.776,14.182l5.112-0.696c-2.201-4.361-3.822-9.261-4.759-14.457L50.586,118.966z M62.674,117.32
	c0.972,5.271,2.708,10.181,5.076,14.413l5.946-0.81c-1.34-4.592-2.424-9.627-3.209-14.667L62.674,117.32z M75.44,115.581
	c0.888,5.718,2.035,10.602,3.272,14.659l12.521-1.706c0.107-4.24-0.094-9.253-0.768-15L75.44,115.581z M95.419,112.86
	c0.592,5.066,0.894,10.209,0.831,14.992l7.517-1.024c1.108-4.612,1.499-9.807,1.017-15.243L95.419,112.86z M109.741,110.909
	c0.49,5.341,0.196,10.491-0.76,15.208l5.154-0.702c2.127-4.841,3.071-10.12,2.736-15.477L109.741,110.909z M52.395,99.126
	c-1.949,4.678-2.805,9.747-2.484,14.887l7.13-0.971c-0.47-5.126-0.218-10.076,0.647-14.637L52.395,99.126z M62.883,97.697
	c-1.005,4.467-1.345,9.457-0.883,14.669l7.812-1.064c-0.59-5.043-0.868-9.937-0.828-14.436L62.883,97.697z M73.99,96.184
	c-0.077,4.45,0.184,9.356,0.776,14.443l15.024-2.046c-0.849-5.469-1.936-10.176-3.111-14.125L73.99,96.184z M91.689,93.774
	c1.27,4.446,2.3,9.287,3.055,14.132l9.365-1.275c-0.932-5.058-2.569-9.783-4.791-13.896L91.689,93.774z M104.567,92.019
	c2.07,4.229,3.601,8.946,4.5,13.936l7.129-0.971c-1.065-5.039-3.246-9.693-6.375-13.68L104.567,92.019z M62.027,86.104
	c-1.963,1.627-3.754,3.492-5.335,5.573c-0.499,0.656-0.972,1.327-1.418,2.011l3.729-0.508
	C59.809,90.632,60.825,88.257,62.027,86.104z M70.465,82.979c-2.483,2.376-4.524,5.618-6.001,9.457l4.712-0.642
	c0.105-1.517,0.253-2.969,0.444-4.344C69.847,85.813,70.129,84.323,70.465,82.979z M77.921,78.904
	c-0.724,0.363-2.413,2.496-3.349,9.234c-0.132,0.949-0.242,1.939-0.33,2.966l10.826-1.475c-2.669-7.134-5.453-10.702-6.833-10.787
	C78.131,78.862,78.026,78.882,77.921,78.904z M85.806,79.568c1.608,2.516,3.067,5.729,4.35,9.369l6.207-0.846
	c-0.517-0.691-1.054-1.356-1.611-1.992C91.983,82.936,88.934,80.728,85.806,79.568z M97.221,81.405
	c0.437,0.448,0.868,0.915,1.293,1.4c1.222,1.395,2.36,2.91,3.408,4.528l3.672-0.5c-0.613-0.54-1.248-1.059-1.904-1.558
	C101.658,83.73,99.489,82.437,97.221,81.405z"/>
<g>
</g>
<g>
</g>
<g>
</g>
<g>
</g>
<g>
</g>
<g>
</g>
<g>
</g>
<g>
</g>
<g>
</g>
<g>
</g>
<g>
</g>
<g>
</g>
<g>
</g>
<g>
</g>
<g>
</g>
</svg>
