<?xml version="1.0" encoding="iso-8859-1"?>
<!-- Generator: Adobe Illustrator 19.0.0, SVG Export Plug-In . SVG Version: 6.00 Build 0)  -->
<svg version="1.1" id="Capa_1" xmlns="http://www.w3.org/2000/svg" xmlns:xlink="http://www.w3.org/1999/xlink" x="0px" y="0px"
	 viewBox="0 0 512 512" style="enable-background:new 0 0 512 512;" xml:space="preserve">
<g>
	<g>
		<path d="M124.875,205.792c-4.165-4.164-10.917-4.164-15.083,0l-53.333,53.333l15.083,15.083l45.792-45.792l56.459,56.459
			l15.083-15.083L124.875,205.792z"/>
	</g>
</g>
<g>
	<g>
		<path d="M199.541,195.125c-4.165-4.164-10.917-4.164-15.083,0l-21.333,21.333l15.083,15.083L192,217.749l35.125,35.125
			l15.083-15.083L199.541,195.125z"/>
	</g>
</g>
<g>
	<g>
		<path d="M53.333,21.333h213.333V0H53.333C23.893,0.035,0.035,23.893,0,53.333v405.333C0.035,488.107,23.893,511.965,53.333,512
			H256v-21.333H53.333c-17.673,0-32-14.327-32-32V53.333C21.333,35.66,35.66,21.333,53.333,21.333z"/>
	</g>
</g>
<g>
	<g>
		<rect x="42.667" y="85.333" width="213.333" height="21.333"/>
	</g>
</g>
<g>
	<g>
		<rect x="53.333" y="42.667" width="21.333" height="21.333"/>
	</g>
</g>
<g>
	<g>
		<rect x="96" y="42.667" width="21.333" height="21.333"/>
	</g>
</g>
<g>
	<g>
		<rect x="298.667" y="256" width="53.333" height="21.333"/>
	</g>
</g>
<g>
	<g>
		<rect x="298.667" y="362.667" width="53.333" height="21.333"/>
	</g>
</g>
<g>
	<g>
		<rect x="298.667" y="149.333" width="53.333" height="21.333"/>
	</g>
</g>
<g>
	<g>
		<path d="M373.333,21.333h-64c-11.782,0-21.333,9.551-21.333,21.333v448c0,11.782,9.551,21.333,21.333,21.333h64
			c11.782,0,21.333-9.551,21.333-21.333v-448C394.667,30.885,385.115,21.333,373.333,21.333z M373.333,490.667h-64v-448h64V490.667z
			"/>
	</g>
</g>
<g>
	<g>
		<rect x="298.667" y="202.667" width="42.667" height="21.333"/>
	</g>
</g>
<g>
	<g>
		<rect x="298.667" y="309.333" width="42.667" height="21.333"/>
	</g>
</g>
<g>
	<g>
		<rect x="298.667" y="416" width="42.667" height="21.333"/>
	</g>
</g>
<g>
	<g>
		<rect x="298.667" y="96" width="42.667" height="21.333"/>
	</g>
</g>
<g>
	<g>
		<rect x="426.667" y="416" width="42.667" height="21.333"/>
	</g>
</g>
<g>
	<g>
		<path d="M478.208,58.08l-21.333-32c-0.635-0.849-1.388-1.602-2.237-2.237c-4.901-3.666-11.847-2.665-15.513,2.237l-21.333,32
			c-1.165,1.755-1.789,3.814-1.792,5.92v437.333c0,5.891,4.776,10.667,10.667,10.667h42.667c5.891,0,10.667-4.776,10.667-10.667V64
			C479.997,61.894,479.373,59.835,478.208,58.08z M458.667,490.667h-21.333V67.2L448,51.2l10.667,16V490.667z"/>
	</g>
</g>
<g>
	<g>
		<path d="M490.667,266.667V448h-21.333v21.333h32c5.891,0,10.667-4.776,10.667-10.667v-192H490.667z"/>
	</g>
</g>
<g>
	<g>
		<path d="M224,138.667H74.667c-11.782,0-21.333,9.551-21.333,21.333v149.333c0,11.782,9.551,21.333,21.333,21.333H224
			c11.782,0,21.333-9.551,21.333-21.333V160C245.333,148.218,235.782,138.667,224,138.667z M224,309.333H74.667V160H224V309.333z"/>
	</g>
</g>
<g>
	<g>
		<rect x="74.667" y="362.667" width="170.667" height="21.333"/>
	</g>
</g>
<g>
	<g>
		<rect x="53.333" y="405.333" width="192" height="21.333"/>
	</g>
</g>
<g>
	<g>
		<rect x="224" y="448" width="21.333" height="21.333"/>
	</g>
</g>
<g>
	<g>
		<rect x="181.333" y="448" width="21.333" height="21.333"/>
	</g>
</g>
<g>
</g>
<g>
</g>
<g>
</g>
<g>
</g>
<g>
</g>
<g>
</g>
<g>
</g>
<g>
</g>
<g>
</g>
<g>
</g>
<g>
</g>
<g>
</g>
<g>
</g>
<g>
</g>
<g>
</g>
</svg>
